<mxfile host="app.diagrams.net" agent="Mozilla/5.0 (Windows NT 10.0; Win64; x64) AppleWebKit/537.36 (KHTML, like Gecko) Chrome/134.0.0.0 Safari/537.36 Edg/134.0.0.0" version="26.1.1">
  <diagram name="ページ1" id="SFx3aGE5nhZYy7ZjdnXA">
    <mxGraphModel grid="1" page="1" gridSize="10" guides="1" tooltips="1" connect="1" arrows="1" fold="1" pageScale="1" pageWidth="827" pageHeight="1169" math="0" shadow="0">
      <root>
        <mxCell id="0" />
        <mxCell id="1" parent="0" />
        <mxCell id="G6jeYll52axkyOfYJdFs-6" value="" style="ellipse;whiteSpace=wrap;html=1;fillColor=#f5f5f5;fontColor=#333333;strokeColor=#666666;dashed=1;dashPattern=1 1;" vertex="1" parent="1">
          <mxGeometry x="170" y="200" width="510" height="360" as="geometry" />
        </mxCell>
        <mxCell id="G6jeYll52axkyOfYJdFs-2" value="労働" style="ellipse;whiteSpace=wrap;html=1;fillColor=#e1d5e7;strokeColor=#9673a6;" vertex="1" parent="1">
          <mxGeometry x="210" y="260" width="340" height="270" as="geometry" />
        </mxCell>
        <mxCell id="G6jeYll52axkyOfYJdFs-5" value="無為の時間" style="ellipse;whiteSpace=wrap;html=1;dashed=1;" vertex="1" parent="1">
          <mxGeometry x="480" y="300" width="70" height="70" as="geometry" />
        </mxCell>
        <mxCell id="G6jeYll52axkyOfYJdFs-3" value="創作" style="ellipse;whiteSpace=wrap;html=1;fillColor=#fff2cc;strokeColor=#d6b656;" vertex="1" parent="1">
          <mxGeometry x="540" y="260" width="100" height="100" as="geometry" />
        </mxCell>
        <mxCell id="G6jeYll52axkyOfYJdFs-7" value="文化的活動" style="ellipse;whiteSpace=wrap;html=1;dashed=1;" vertex="1" parent="1">
          <mxGeometry x="500" y="430" width="80" height="80" as="geometry" />
        </mxCell>
        <mxCell id="G6jeYll52axkyOfYJdFs-8" value="&lt;font style=&quot;font-size: 18px;&quot;&gt;生活&lt;/font&gt;" style="text;html=1;align=center;verticalAlign=middle;whiteSpace=wrap;rounded=0;" vertex="1" parent="1">
          <mxGeometry x="395" y="220" width="60" height="30" as="geometry" />
        </mxCell>
        <mxCell id="G6jeYll52axkyOfYJdFs-4" value="生命維持&lt;div&gt;（食事・睡眠）&lt;/div&gt;" style="ellipse;whiteSpace=wrap;html=1;dashed=1;" vertex="1" parent="1">
          <mxGeometry x="500" y="350" width="120" height="90" as="geometry" />
        </mxCell>
      </root>
    </mxGraphModel>
  </diagram>
</mxfile>
